:SAMPLES-PER-SECOND 30
:FULLY-SPECIFIED
:DEGREES
506
root  20.4569 38.2429 8.6361 -16.9033 -86.5608 4.8
RightUpLeg  -11.9781 -6.05479 -4.25054
RightLeg  -4.70135 -9.9012 6.02706
RightFoot  -0.54744 -0.542624 5.82871
RightToes  0.00048216 0.542163 -0.142577
Spine  16.8823 -2.14248 -1.68268
Spine1  8.6229 -3.15846 1.31589
HEad  -6.66124 7.39261 -4.14985
LeftShoulder1  7.85666 -12.942 -41.4357
LeftArm  -17.3523 16.4636 -25.5145
LeftForeArm  111.824 -77.561 -122.269
LeftHand  -0.25398 0.0180481 5.50724
RightShoulder  4.83852 8.65446 33.8494
RightArm  -15.3784 -19.0572 25.6755
RightForeArm  60.0117 77.6016 105.868
RightHand  -0.135059 -13.9722 0.441983
LeftUpLeg  25.1692 9.19078 0.247846
LeftLeg  14.4878 14.2945 -1.63823
LeftFoot  -22.9074 0.172115 0.335599
LeftToes  1.06244e-005 4.65856e-005 -8.18505e-006
507
root  18.7099 38.0419 8.73467 -0.279958 -85.4182 -13.4835
RightUpLeg  -10.7657 -6.36307 -2.87144
RightLeg  -0.407119 -10.6838 5.1901
RightFoot  4.12938 -0.325994 2.63029
RightToes  0.00048216 0.542163 -0.142577
Spine  19.7515 -2.96103 1.0043
Spine1  7.75654 -3.7371 1.44946
HEad  -6.78085 6.88941 -4.45982
LeftShoulder1  7.86397 -12.8922 -41.6132
LeftArm  -17.3361 16.7649 -25.6007
LeftForeArm  111.865 -77.634 -121.884
LeftHand  -0.25398 0.0180481 5.50724
RightShoulder  4.74477 8.48291 33.639
RightArm  -15.1432 -18.8139 25.6872
RightForeArm  59.6824 77.6427 105.295
RightHand  -0.13482 -13.7969 0.468032
LeftUpLeg  29.4329 12.3389 4.82297
LeftLeg  16.1949 8.49389 -0.708843
LeftFoot  -22.7556 -0.0570717 -1.88035
LeftToes  1.06244e-005 4.65856e-005 -8.18505e-006
508
root  16.7026 37.8394 8.91997 23.0358 -84.2759 -37.1744
RightUpLeg  -12.5303 -10.9412 0.390581
RightLeg  8.18012 -4.75404 3.564
RightFoot  9.26689 -0.0648196 0.687582
RightToes  0.00048216 0.542163 -0.142577
Spine  19.2829 -4.28208 6.26005
Spine1  8.48921 -3.76451 -0.401078
HEad  -6.90964 6.34425 -4.93456
LeftShoulder1  7.94581 -12.8975 -42.063
LeftArm  -17.3527 17.5292 -25.5145
LeftForeArm  110.888 -77.8053 -120.635
LeftHand  -0.25398 0.0180481 5.50724
RightShoulder  4.72568 8.42815 33.6601
RightArm  -14.7011 -18.641 25.4434
RightForeArm  58.5759 77.7508 103.619
RightHand  -0.142173 -13.5233 0.611352
LeftUpLeg  31.4558 15.0924 10.2608
LeftLeg  19.9805 2.93043 0.75674
LeftFoot  -21.8255 -0.53674 -7.46813
LeftToes  1.06244e-005 4.65856e-005 -8.18505e-006
509
root  14.7161 37.7483 9.01587 47.6284 -83.2131 -61.8825
RightUpLeg  -14.2036 -16.8653 5.37344
RightLeg  15.3128 3.63679 1.81053
RightFoot  10.5767 0.25948 -0.9983
RightToes  0.00048216 0.542163 -0.142577
Spine  19.0154 -4.76876 11.4927
Spine1  8.90637 -2.94218 -1.80005
HEad  -6.56947 6.0374 -5.59034
LeftShoulder1  8.15414 -13.0579 -42.7953
LeftArm  -17.4531 18.7188 -25.3055
LeftForeArm  108.709 -78.0881 -118.268
LeftHand  -0.25398 0.0180481 5.50724
RightShoulder  4.82138 8.55518 34.0327
RightArm  -14.1983 -18.4694 24.7547
RightForeArm  56.0911 77.8946 100.702
RightHand  -0.156025 -13.5206 0.800645
LeftUpLeg  30.5228 14.8301 13.6934
LeftLeg  27.0443 4.10582 2.81136
LeftFoot  -16.3751 -0.440119 -12.4973
LeftToes  1.06244e-005 4.65856e-005 -8.18505e-006
510
root  12.8552 37.8082 8.9529 66.7915 -82.0527 -80.3704
RightUpLeg  -14.9312 -13.9759 8.45123
RightLeg  20.2754 2.20252 0.541644
RightFoot  7.50874 0.668158 -3.75295
RightToes  0.00048216 0.542163 -0.142577
Spine  18.3661 -4.15194 14.6854
Spine1  9.6295 -1.7499 -1.50084
HEad  -5.91572 5.91486 -5.97184
LeftShoulder1  8.36889 -13.2396 -43.487
LeftArm  -17.6906 19.7881 -25.0504
LeftForeArm  106.521 -78.3543 -115.799
LeftHand  -0.25398 0.0180481 5.50724
RightShoulder  4.94172 8.72553 34.4563
RightArm  -13.6219 -17.9742 24.0013
RightForeArm  52.1299 78.0151 96.8272
RightHand  -0.173128 -13.9832 0.94048
LeftUpLeg  25.3959 15.0463 15.9211
LeftLeg  37.9396 7.80545 6.90489
LeftFoot  -3.86835 0.609181 -10.6122
LeftToes  1.06244e-005 4.65856e-005 -8.18505e-006
